:FULLY-SPECIFIED
:FORCE-ALL-JOINTS-BE-3DOF
:DEGREES
32
root 0.546291 17.8223 -19.0232 3.11557 -10.9636 1.38078
lfemur 5.71178 10.9933 -23.6153
ltibia 81.1986 0 0
lfoot 29.4541 4.47712 0
ltoes -6.01512 0 0
rfemur -25.1904 2.66988 25.9892
rtibia 27.6905 0 0
rfoot -1.9882 3.84579 0
rtoes 10.1232 0 0
lowerback 15.5396 -1.4091 -1.66734
upperback 1.44726 -2.13801 0.243006
thorax -7.10041 -0.988096 1.65856
lowerneck -4.12817 3.49816 -1.39715
upperneck -11.1281 4.57904 -1.30889
head -2.83065 2.35788 -0.237817
lclavicle 1.2921e-15 8.24956e-15 0
lhumerus -34.4426 -19.2163 94.0061
lradius 107.147 0 0
lwrist 30.4435 0 0
lhand -38.9825 10.202 0
lfingers 7.12502 0 0
lthumb -11.9867 39.8388 0
rclavicle 1.2921e-15 8.24956e-15 0
rhumerus -53.1826 3.19302 -84.5572
rradius 92.968 0 0
rwrist -4.54144 0 0
rhand -43.8966 37.7393 0
rfingers 7.12502 0 0
rthumb -16.7217 8.43949 0
33
root 0.54864 17.8575 -18.491 3.19481 -10.7173 1.09326
lfemur 4.23645 10.3874 -23.0429
ltibia 79.7719 0 0
lfoot 28.874 4.20969 0
ltoes -6.34334 0 0
rfemur -23.5338 2.86696 26.2859
rtibia 27.3343 0 0
rfoot -0.846203 3.61373 0
rtoes 10.4334 0 0
lowerback 15.4488 -1.31282 -1.36738
upperback 1.42464 -1.96534 0.252821
thorax -7.06381 -0.911857 1.46699
lowerneck -4.2485 3.3603 -1.37429
upperneck -10.9744 4.40102 -1.22539
head -2.76041 2.26713 -0.214491
lclavicle 9.12165e-16 7.82955e-15 0
lhumerus -35.3506 -18.7061 93.9021
lradius 107.048 0 0
lwrist 30.2999 0 0
lhand -38.9343 10.2263 0
lfingers 7.12502 0 0
lthumb -11.9403 39.8656 0
rclavicle 9.12165e-16 7.82955e-15 0
rhumerus -52.4476 3.88047 -84.6706
rradius 93.546 0 0
rwrist -4.44998 0 0
rhand -43.889 37.6896 0
rfingers 7.12502 0 0
rthumb -16.7144 8.38919 0
34
root 0.55099 17.8927 -17.9589 3.27404 -10.471 0.80573
lfemur 2.76112 9.78151 -22.4705
ltibia 78.3452 0 0
lfoot 28.2939 3.94226 0
ltoes -6.67156 0 0
rfemur -21.8772 3.06404 26.5826
rtibia 26.978 0 0
rfoot 0.295794 3.38167 0
rtoes 10.7437 0 0
lowerback 15.3579 -1.21654 -1.06741
upperback 1.40203 -1.79268 0.262635
thorax -7.0272 -0.835618 1.27541
lowerneck -4.36882 3.22244 -1.35144
upperneck -10.8206 4.223 -1.14188
head -2.69017 2.17638 -0.191165
lclavicle 5.32229e-16 7.40953e-15 0
lhumerus -36.2586 -18.196 93.7982
lradius 106.949 0 0
lwrist 30.1563 0 0
lhand -38.8862 10.2506 0
lfingers 7.12502 0 0
lthumb -11.8938 39.8925 0
rclavicle 5.32229e-16 7.40953e-15 0
rhumerus -51.7126 4.56793 -84.7839
rradius 94.1241 0 0
rwrist -4.35851 0 0
rhand -43.8813 37.6399 0
rfingers 7.12502 0 0
rthumb -16.707 8.3389 0
35
root 0.553339 17.9278 -17.4267 3.35328 -10.2247 0.518205
lfemur 1.28579 9.17562 -21.8981
ltibia 76.9186 0 0
lfoot 27.7138 3.67484 0
ltoes -6.99978 0 0
rfemur -20.2206 3.26112 26.8793
rtibia 26.6218 0 0
rfoot 1.43779 3.14961 0
rtoes 11.0539 0 0
lowerback 15.2671 -1.12026 -0.76745
upperback 1.37941 -1.62001 0.27245
thorax -6.9906 -0.759379 1.08384
lowerneck -4.48915 3.08459 -1.32858
upperneck -10.6669 4.04498 -1.05838
head -2.61993 2.08562 -0.167839
lclavicle 1.52294e-16 6.98952e-15 0
lhumerus -37.1666 -17.6858 93.6942
lradius 106.85 0 0
lwrist 30.0127 0 0
lhand -38.838 10.2749 0
lfingers 7.12502 0 0
lthumb -11.8474 39.9193 0
rclavicle 1.52294e-16 6.98952e-15 0
rhumerus -50.9777 5.25538 -84.8973
rradius 94.7021 0 0
rwrist -4.26705 0 0
rhand -43.8737 37.5903 0
rfingers 7.12502 0 0
rthumb -16.6997 8.2886 0
36
root 0.555689 17.963 -16.8945 3.43251 -9.97837 0.230681
lfemur -0.189546 8.56973 -21.3257
ltibia 75.4919 0 0
lfoot 27.1338 3.40741 0
ltoes -7.32799 0 0
rfemur -18.564 3.4582 27.176
rtibia 26.2655 0 0
rfoot 2.57979 2.91754 0
rtoes 11.3642 0 0
lowerback 15.1762 -1.02399 -0.467487
upperback 1.35679 -1.44735 0.282265
thorax -6.95399 -0.68314 0.892266
lowerneck -4.60947 2.94673 -1.30572
upperneck -10.5131 3.86695 -0.974873
head -2.54969 1.99487 -0.144513
lclavicle -2.27642e-16 6.56951e-15 0
lhumerus -38.0746 -17.1757 93.5903
lradius 106.752 0 0
lwrist 29.8692 0 0
lhand -38.7899 10.2993 0
lfingers 7.12502 0 0
lthumb -11.8009 39.9462 0
rclavicle -2.27642e-16 6.56951e-15 0
rhumerus -50.2427 5.94284 -85.0107
rradius 95.2801 0 0
rwrist -4.17559 0 0
rhand -43.8661 37.5406 0
rfingers 7.12502 0 0
rthumb -16.6923 8.2383 0
37
root 0.558038 17.9982 -16.3624 3.51175 -9.73206 -0.0568442
lfemur -1.66488 7.96383 -20.7532
ltibia 74.0652 0 0
lfoot 26.5537 3.13998 0
ltoes -7.65621 0 0
rfemur -16.9074 3.65528 27.4727
rtibia 25.9093 0 0
rfoot 3.72178 2.68548 0
rtoes 11.6744 0 0
lowerback 15.0854 -0.927706 -0.167524
upperback 1.33418 -1.27468 0.29208
thorax -6.91739 -0.606901 0.700692
lowerneck -4.7298 2.80887 -1.28287
upperneck -10.3594 3.68893 -0.891369
head -2.47945 1.90412 -0.121187
lclavicle -6.07577e-16 6.1495e-15 0
lhumerus -38.9826 -16.6655 93.4863
lradius 106.653 0 0
lwrist 29.7256 0 0
lhand -38.7417 10.3236 0
lfingers 7.12502 0 0
lthumb -11.7545 39.973 0
rclavicle -6.07577e-16 6.1495e-15 0
rhumerus -49.5077 6.63029 -85.1241
rradius 95.8582 0 0
rwrist -4.08412 0 0
rhand -43.8585 37.4909 0
rfingers 7.12502 0 0
rthumb -16.685 8.188 0
38
root 0.560387 18.0334 -15.8302 3.59099 -9.48575 -0.344369
lfemur -3.14021 7.35794 -20.1808
ltibia 72.6385 0 0
lfoot 25.9736 2.87255 0
ltoes -7.98443 0 0
rfemur -15.2508 3.85236 27.7694
rtibia 25.553 0 0
rfoot 4.86378 2.45342 0
rtoes 11.9847 0 0
lowerback 14.9945 -0.831428 0.132439
upperback 1.31156 -1.10202 0.301894
thorax -6.88079 -0.530663 0.509119
lowerneck -4.85012 2.67101 -1.26001
upperneck -10.2056 3.51091 -0.807865
head -2.40921 1.81337 -0.0978614
lclavicle -9.87513e-16 5.72948e-15 0
lhumerus -39.8905 -16.1554 93.3823
lradius 106.554 0 0
lwrist 29.582 0 0
lhand -38.6935 10.3479 0
lfingers 7.12502 0 0
lthumb -11.708 39.9999 0
rclavicle -9.87513e-16 5.72948e-15 0
rhumerus -48.7727 7.31775 -85.2374
rradius 96.4362 0 0
rwrist -3.99266 0 0
rhand -43.8508 37.4412 0
rfingers 7.12502 0 0
rthumb -16.6776 8.13771 0
39
root 0.562737 18.0685 -15.2981 3.67022 -9.23944 -0.631894
lfemur -4.61554 6.75205 -19.6084
ltibia 71.2118 0 0
lfoot 25.3935 2.60512 0
ltoes -8.31265 0 0
rfemur -13.5942 4.04944 28.0661
rtibia 25.1968 0 0
rfoot 6.00578 2.22136 0
rtoes 12.2949 0 0
lowerback 14.9037 -0.735149 0.432403
upperback 1.28894 -0.929352 0.311709
thorax -6.84418 -0.454424 0.317545
lowerneck -4.97045 2.53315 -1.23715
upperneck -10.0519 3.33289 -0.724361
head -2.33897 1.72261 -0.0745355
lclavicle -1.36745e-15 5.30947e-15 0
lhumerus -40.7985 -15.6452 93.2784
lradius 106.455 0 0
lwrist 29.4384 0 0
lhand -38.6454 10.3722 0
lfingers 7.12502 0 0
lthumb -11.6616 40.0267 0
rclavicle -1.36745e-15 5.30947e-15 0
rhumerus -48.0378 8.0052 -85.3508
rradius 97.0142 0 0
rwrist -3.9012 0 0
rhand -43.8432 37.3915 0
rfingers 7.12502 0 0
rthumb -16.6703 8.08741 0
40
root 0.565086 18.1037 -14.7659 3.74946 -8.99313 -0.919419
lfemur -6.09087 6.14615 -19.036
ltibia 69.7852 0 0
lfoot 24.8134 2.3377 0
ltoes -8.64087 0 0
rfemur -11.9377 4.24652 28.3629
rtibia 24.8405 0 0
rfoot 7.14777 1.9893 0
rtoes 12.6052 0 0
lowerback 14.8128 -0.63887 0.732366
upperback 1.26633 -0.756686 0.321524
thorax -6.80758 -0.378185 0.125972
lowerneck -5.09077 2.39529 -1.21429
upperneck -9.89816 3.15487 -0.640856
head -2.26873 1.63186 -0.0512095
lclavicle -1.74738e-15 4.88946e-15 0
lhumerus -41.7065 -15.1351 93.1744
lradius 106.356 0 0
lwrist 29.2948 0 0
lhand -38.5972 10.3965 0
lfingers 7.12502 0 0
lthumb -11.6151 40.0536 0
rclavicle -1.74738e-15 4.88946e-15 0
rhumerus -47.3028 8.69265 -85.4642
rradius 97.5923 0 0
rwrist -3.80973 0 0
rhand -43.8356 37.3419 0
rfingers 7.12502 0 0
rthumb -16.6629 8.03711 0
